<svg height="512" viewBox="0 0 32 32" width="512" xmlns="http://www.w3.org/2000/svg"><g id="_x31_4"><path d="m28 16c-.7366943 0-1.3746948.4052124-1.7216797 1h-3.2783203c-.265625 0-.5195313.1054688-.7070313.2929688l-1.7070312 1.7070312h-2.5859375v2h3c.265625 0 .5195313-.1054688.7070313-.2929688l1.7070312-1.7070312h2.8642578c.3469849.5947876.9849854 1 1.7216797 1 1.1025391 0 2-.8974609 2-2s-.8974609-2-2-2z"/><path d="m28 26c-.7366943 0-1.3746948.4052124-1.7216797 1h-2.8642578l-1.7070313-1.7070313c-.1874999-.1874999-.4414062-.2929687-.7070312-.2929687h-3v2h2.5859375l1.7070313 1.7070313c.1875.1875.4414062.2929687.7070312.2929687h3.2783203c.3469849.5947876.9849854 1 1.7216797 1 1.1025391 0 2-.8974609 2-2s-.8974609-2-2-2z"/><path d="m28 21c-.7366943 0-1.3746948.4052124-1.7216797 1h-8.2783203v2h8.2783203c.3469849.5947876.9849854 1 1.7216797 1 1.1025391 0 2-.8974609 2-2s-.8974609-2-2-2z"/><path d="m14 5-5.4855347-2.8534546c-.3166504-.1954346-.7122803-.1954346-1.0289307 0l-5.4855346 2.8534546 6 3z"/><path d="m2.4453125 12.3823242 5.0546875 2.6176758v-6.2000122l-5.5-2.7145386v5.4648438c0 .3343506.1671143.6465454.4453125.8320312z"/><path d="m14 6.0854492-5.5 2.7145386v6.2000122l5.0546875-2.6176758c.2781982-.1854858.4453125-.4976806.4453125-.8320312z"/><path d="m4.5 24h-2c-.276123 0-.5.2238159-.5.5v5.5h3v-5.5c0-.2761841-.223877-.5-.5-.5z"/><path d="m8.5 21h-2c-.276123 0-.5.2238159-.5.5v8.5h3v-8.5c0-.2761841-.223877-.5-.5-.5z"/><path d="m12.5 17h-2c-.276123 0-.5.2238159-.5.5v12.5h3v-12.5c0-.2761841-.223877-.5-.5-.5z"/><path d="m16.5 14h-2c-.276123 0-.5.2238159-.5.5v15.5h3v-15.5c0-.2761841-.223877-.5-.5-.5z"/><path d="m23.5 15c2.0482788 0 3.8753662-.9561157 5.067627-2.4438477l-5.3996582-3.8638306c-.1308594-.0939331-.2089844-.246521-.2089844-.407959v-6.2802123c-3.331543.2769165-5.9589844 3.076355-5.9589844 6.4841919 0 3.5906982 2.9157104 6.5116577 6.5 6.5116577z"/><path d="m30 8.4883423c0-3.4356079-2.6708984-6.2507935-6.0410156-6.4883423v6.0270386l5.1719971 3.7000732c.5496215-.9552002.8690185-2.0592651.8690185-3.2387695z"/></g></svg>